# xmcd
# Copyright (C) 1995-1998 Ti Kan
#
# Track frame offsets:
#       150
#       12185
#       26367
#       38145
#       56962
#       77800
#       91490
#       106545
#       121412
#       136562
#       147875
#       164592
#
# Disc length: 2437 seconds
#
# Revision: 0
# Processed by: cddbd v1.4PL0 Copyright (c) Steve Scherf et al.
# Submitted via: CD-Transfer v1.0
#
DISCID=9209830c
DTITLE=Maja Brunner - C. Brunner, J. Baumgartner, Ch. Lewinsky
DYEAR=87
DGENRE=
TTITLE0=Das Chunnt Eus Spanisch Vor
TTITLE1=Red Tüütsch Mit Mir, Miin Schatz
TTITLE2=Züri Und Bern
TTITLE3=Ferie Dehei
TTITLE4=S'alphorn
TTITLE5=Das Stinkt Mir Grauehaft
TTITLE6=Das Isch En Superträffer
TTITLE7=Was D'in Züri Bruuchsch
TTITLE8=De Carlo Schpillt Sis Klarinett
TTITLE9=Musikantenlied
TTITLE10=Die Schönschte Fäschter
TTITLE11=I Han Eifach Immer Weichi Chnüü
EXTD=
EXTT0=
EXTT1=
EXTT2=
EXTT3=
EXTT4=
EXTT5=
EXTT6=
EXTT7=
EXTT8=
EXTT9=
EXTT10=
EXTT11=
PLAYORDER=
